{"accessors":[{"bufferView":0,"componentType":5123,"count":50532,"max":[9241],"min":[0],"type":"SCALAR"},{"bufferView":1,"componentType":5126,"count":9242,"max":[60.142250061035156,42.852970123291016,60.142242431640625],"min":[-60.142250061035156,-166.796630859375,-60.142250061035156],"type":"VEC3"},{"bufferView":2,"componentType":5126,"count":9242,"max":[1.0,1.0,1.0],"min":[-1.0,-1.0,-1.0],"type":"VEC3"},{"bufferView":3,"componentType":5126,"count":9242,"max":[1.9999983310699463,1.076055645942688],"min":[-0.9110012054443359,-0.027430295944213867],"type":"VEC2"},{"bufferView":4,"componentType":5126,"count":9242,"max":[0.9781279563903809,0.996658205986023],"min":[0.0033417344093322754,0.0033417344093322754],"type":"VEC2"},{"bufferView":5,"componentType":5123,"count":8640,"max":[1557],"min":[0],"type":"SCALAR"},{"bufferView":6,"componentType":5126,"count":1558,"max":[62.150550842285156,37.180686950683594,62.150543212890625],"min":[-62.150543212890625,-152.34042358398438,-62.150550842285156],"type":"VEC3"},{"bufferView":7,"componentType":5126,"count":1558,"max":[0.9999990463256836,0.513603150844574,0.9999991059303284],"min":[-0.9999990463256836,-0.5237878561019897,-0.9999991059303284],"type":"VEC3"},{"bufferView":8,"componentType":5126,"count":1558,"max":[1.0124995708465576,1.0],"min":[0.012499511241912842,0.0029096603393554688],"type":"VEC2"},{"bufferView":9,"componentType":5126,"count":1558,"max":[0.5429296493530273,0.9966582504566759],"min":[0.0182444266974926,0.19940340518951416],"type":"VEC2"},{"bufferView":10,"componentType":5121,"count":6,"max":[3],"min":[0],"type":"SCALAR"},{"bufferView":11,"componentType":5126,"count":4,"max":[0.5,0.0,0.5],"min":[-0.5,0.0,-0.5],"type":"VEC3"},{"bufferView":12,"componentType":5126,"count":4,"max":[0.0,1.0,-0.0],"min":[0.0,1.0,-0.0],"type":"VEC3"},{"bufferView":13,"componentType":5126,"count":4,"max":[1.0,1.0],"min":[0.0,0.0],"type":"VEC2"}],"asset":{"generator":"Verge3D for Blender","version":"2.0"},"bufferViews":[{"buffer":0,"byteLength":101064,"byteOffset":0,"target":34963},{"buffer":0,"byteLength":110904,"byteOffset":101064,"target":34962},{"buffer":0,"byteLength":110904,"byteOffset":211968,"target":34962},{"buffer":0,"byteLength":73936,"byteOffset":322872,"target":34962},{"buffer":0,"byteLength":73936,"byteOffset":396808,"target":34962},{"buffer":0,"byteLength":17280,"byteOffset":470744,"target":34963},{"buffer":0,"byteLength":18696,"byteOffset":488024,"target":34962},{"buffer":0,"byteLength":18696,"byteOffset":506720,"target":34962},{"buffer":0,"byteLength":12464,"byteOffset":525416,"target":34962},{"buffer":0,"byteLength":12464,"byteOffset":537880,"target":34962},{"buffer":0,"byteLength":6,"byteOffset":550344,"target":34963},{"buffer":0,"byteLength":48,"byteOffset":550352,"target":34962},{"buffer":0,"byteLength":48,"byteOffset":550400,"target":34962},{"buffer":0,"byteLength":32,"byteOffset":550448,"target":34962}],"buffers":[{"byteLength":550480,"uri":"model.bin"}],"cameras":[{"extensions":{"S8S_v3d_camera":{"controls":"ORBIT","enablePan":true,"moveSpeed":1.0,"orbitMaxDistance":1.25,"orbitMaxPolarAngle":3.1415927410125732,"orbitMaxZoom":100.0,"orbitMinDistance":0.25,"orbitMinPolarAngle":0.0,"orbitMinZoom":0.009999999776482582,"orbitTarget":[-3.8743019104003906e-07,0.10482499748468399,-0.0],"rotateSpeed":1.0,"viewportFitInitialAspect":1.0,"viewportFitType":"AUTO"}},"name":"Camera.001","perspective":{"aspectRatio":1.0,"yfov":0.6911112070083618,"zfar":100.0,"znear":0.10000000149011612},"type":"perspective"}],"extensionsUsed":["S8S_v3d_texture","S8S_v3d_materials","S8S_v3d_camera","S8S_v3d_mesh","S8S_v3d_node","S8S_v3d_scene"],"images":[{"uri":"Coke_Basecolor_1.jpg"},{"uri":"AO.jpg"},{"uri":"Ground.jpg"},{"uri":"environment_1.hdr"}],"materials":[{"extensions":{"S8S_v3d_materials":{"gtaoVisible":true,"materialIndex":0,"nodeGraph":{"edges":[{"fromNode":4,"fromOutput":0,"toInput":0,"toNode":3},{"fromNode":1,"fromOutput":0,"toInput":0,"toNode":0},{"fromNode":2,"fromOutput":0,"toInput":0,"toNode":1},{"fromNode":0,"fromOutput":0,"toInput":2,"toNode":4},{"fromNode":6,"fromOutput":0,"toInput":0,"toNode":7},{"fromNode":7,"fromOutput":0,"toInput":0,"toNode":4},{"fromNode":5,"fromOutput":0,"toInput":1,"toNode":4}],"nodes":[{"inputs":[[0.5,0.5,0.5,1.0],0.0,[1.0,0.20000000298023224,0.10000000149011612],[0.800000011920929,0.800000011920929,0.800000011920929,1.0],1.399999976158142,0.0,0.0,0.25,0.0,0.25,0.0,0.0,0.0,0.5,0.0,0.029999999329447746,1.4500000476837158,0.0,0.0,[0.0,0.0,0.0,1.0],0.0,1.0,[0.0,0.0,0.0],[0.0,0.0,0.0],[0.0,0.0,0.0]],"is_active_output":false,"name":"Principled BSDF","outputs":[[0,0,0,0]],"type":"BSDF_PRINCIPLED_BL"},{"alphaMode":"STRAIGHT","inputs":[[0.0,0.0,0.0]],"is_active_output":false,"name":"Image Texture","outputs":[[0.0,0.0,0.0,0.0],0.0],"projection":"FLAT","projectionBlend":0.0,"texture":0,"type":"TEX_IMAGE_BL"},{"inputs":[],"is_active_output":false,"name":"UV Map","outputs":[[0.0,0.0,0.0]],"type":"UVMAP_BL","uvLayer":"UVChannel_1"},{"inputs":[[0,0,0,0],[0,0,0,0],[0.0,0.0,0.0],0.0],"is_active_output":true,"name":"Material Output","outputs":[],"type":"OUTPUT_MATERIAL_BL"},{"inputs":[0.5,[0,0,0,0],[0,0,0,0]],"is_active_output":false,"name":"Mix Shader","outputs":[[0,0,0,0]],"type":"MIX_SHADER_BL"},{"inputs":[[0.0,0.0,0.0,1.0],0.0,[0.0,0.0,0.0]],"is_active_output":false,"name":"Diffuse BSDF","outputs":[[0,0,0,0]],"type":"BSDF_DIFFUSE_BL"},{"inputs":[],"is_active_output":false,"name":"UV Map.001","outputs":[[0.0,0.0,0.0]],"type":"UVMAP_BL","uvLayer":"UVMap_AO"},{"alphaMode":"STRAIGHT","inputs":[[0.0,0.0,0.0]],"is_active_output":false,"name":"Image Texture.001","outputs":[[0.0,0.0,0.0,0.0],0.0],"projection":"FLAT","projectionBlend":0.0,"texture":1,"type":"TEX_IMAGE_BL"}]},"useCastShadows":true}},"name":"Coke"},{"alphaMode":"BLEND","doubleSided":true,"extensions":{"S8S_v3d_materials":{"blendMode":{"blendEquation":32774,"dstRGB":771,"srcRGB":1},"depthWrite":false,"gtaoVisible":false,"materialIndex":0,"nodeGraph":{"edges":[{"fromNode":1,"fromOutput":0,"toInput":0,"toNode":0},{"fromNode":5,"fromOutput":0,"toInput":0,"toNode":1},{"fromNode":3,"fromOutput":0,"toInput":1,"toNode":1},{"fromNode":4,"fromOutput":0,"toInput":2,"toNode":1},{"fromNode":2,"fromOutput":0,"toInput":0,"toNode":5}],"nodes":[{"inputs":[[0,0,0,0],[0,0,0,0],[0.0,0.0,0.0],0.0],"is_active_output":true,"name":"Material Output","outputs":[],"type":"OUTPUT_MATERIAL_BL"},{"inputs":[0.5,[0,0,0,0],[0,0,0,0]],"is_active_output":false,"name":"Mix Shader","outputs":[[0,0,0,0]],"type":"MIX_SHADER_BL"},{"alphaMode":"STRAIGHT","inputs":[[0.0,0.0,0.0]],"is_active_output":false,"name":"Image Texture","outputs":[[0.0,0.0,0.0,0.0],0.0],"projection":"FLAT","projectionBlend":0.0,"texture":2,"type":"TEX_IMAGE_BL"},{"inputs":[[0.0,0.0,0.0,1.0],0.0,[0.0,0.0,0.0]],"is_active_output":false,"name":"Diffuse BSDF","outputs":[[0,0,0,0]],"type":"BSDF_DIFFUSE_BL"},{"inputs":[[1.0,1.0,1.0,1.0]],"is_active_output":false,"name":"Transparent BSDF","outputs":[[0,0,0,0]],"type":"BSDF_TRANSPARENT_BL"},{"curve":{"input":[0.10000000149011612,0.8999999761581421],"interpolation":"LINEAR","output":[0.0,0.0,0.0,1.0,1.0,1.0,1.0,1.0]},"inputs":[0.5],"is_active_output":false,"name":"ColorRamp","outputs":[[0.0,0.0,0.0,0.0],0.0],"type":"VALTORGB_BL"}]},"renderSide":"DOUBLE","useCastShadows":true}},"name":"Ground"},{"extensions":{"S8S_v3d_materials":{"gtaoVisible":true,"materialIndex":0,"nodeGraph":{"edges":[{"fromNode":0,"fromOutput":0,"toInput":0,"toNode":1},{"fromNode":3,"fromOutput":0,"toInput":0,"toNode":4},{"fromNode":4,"fromOutput":0,"toInput":0,"toNode":0},{"fromNode":2,"fromOutput":0,"toInput":1,"toNode":0},{"fromNode":5,"fromOutput":0,"toInput":2,"toNode":0}],"nodes":[{"inputs":[0.5,[0,0,0,0],[0,0,0,0]],"is_active_output":false,"name":"Mix Shader","outputs":[[0,0,0,0]],"type":"MIX_SHADER_BL"},{"inputs":[[0,0,0,0],[0,0,0,0],[0.0,0.0,0.0],0.0],"is_active_output":true,"name":"Material Output.001","outputs":[],"type":"OUTPUT_MATERIAL_BL"},{"inputs":[[0.0,0.0,0.0,1.0],0.0,[0.0,0.0,0.0]],"is_active_output":false,"name":"Diffuse BSDF","outputs":[[0,0,0,0]],"type":"BSDF_DIFFUSE_BL"},{"inputs":[],"is_active_output":false,"name":"UV Map.001","outputs":[[0.0,0.0,0.0]],"type":"UVMAP_BL","uvLayer":"UVMap_AO"},{"alphaMode":"STRAIGHT","inputs":[[0.0,0.0,0.0]],"is_active_output":false,"name":"Image Texture.001","outputs":[[0.0,0.0,0.0,0.0],0.0],"projection":"FLAT","projectionBlend":0.0,"texture":1,"type":"TEX_IMAGE_BL"},{"inputs":[[0.5,0.5,0.5,1.0],0.0,[1.0,0.20000000298023224,0.10000000149011612],[0.800000011920929,0.800000011920929,0.800000011920929,1.0],1.399999976158142,0.0,1.0,0.5,0.0,0.4000000059604645,0.0,0.0,0.0,0.5,0.0,0.029999999329447746,1.4500000476837158,0.0,0.0,[0.0,0.0,0.0,1.0],0.0,1.0,[0.0,0.0,0.0],[0.0,0.0,0.0],[0.0,0.0,0.0]],"is_active_output":false,"name":"Principled BSDF","outputs":[[0,0,0,0]],"type":"BSDF_PRINCIPLED_BL"}]},"useCastShadows":true}},"name":"Metal"},{"extensions":{"S8S_v3d_materials":{"gtaoVisible":true,"materialIndex":0,"nodeGraph":{"edges":[{"fromNode":3,"fromOutput":0,"toInput":0,"toNode":2},{"fromNode":6,"fromOutput":0,"toInput":0,"toNode":1},{"fromNode":0,"fromOutput":0,"toInput":0,"toNode":6},{"fromNode":4,"fromOutput":0,"toInput":0,"toNode":5},{"fromNode":1,"fromOutput":0,"toInput":1,"toNode":5},{"fromNode":5,"fromOutput":0,"toInput":0,"toNode":3}],"nodes":[{"inputs":[],"is_active_output":false,"name":"Texture Coordinate","object":-1,"outputs":[[0.0,0.0,0.0],[0.0,0.0,0.0],[0.0,0.0,0.0],[0.0,0.0,0.0],[0.0,0.0,0.0],[0.0,0.0,0.0],[0.0,0.0,0.0]],"type":"TEX_COORD_BL"},{"inputs":[[0.0,0.0,0.0]],"is_active_output":false,"name":"Environment Texture","outputs":[[0.0,0.0,0.0,0.0]],"projection":"EQUIRECTANGULAR","texture":4,"type":"TEX_ENVIRONMENT_BL"},{"inputs":[[0,0,0,0],[0,0,0,0]],"is_active_output":true,"name":"World Output","outputs":[],"type":"OUTPUT_WORLD_BL"},{"inputs":[[0.05087608844041824,0.05087608844041824,0.05087608844041824,1.0],1.0],"is_active_output":false,"name":"Background","outputs":[[0,0,0,0]],"type":"BACKGROUND_BL"},{"inputs":[],"is_active_output":false,"name":"Light Path","outputs":[0.0,0.0,0.0,0.0,0.0,0.0,0.0,0.0,0.0,0.0,0.0,0.0,0.0],"type":"LIGHT_PATH_BL"},{"blendType":"MIX","inputs":[0.5,[0.5,0.5,0.5,1.0],[0.5,0.5,0.5,1.0]],"is_active_output":false,"name":"Mix","outputs":[[0.0,0.0,0.0,0.0]],"type":"MIX_RGB_BL","useClamp":false},{"inputs":[[0.0,0.0,0.0],[0.0,0.0,0.0],[1.5707963705062866,0.0,0.0],[1.0,1.0,1.0]],"is_active_output":false,"name":"Mapping","outputs":[[0.0,0.0,0.0]],"type":"MAPPING_BL","vectorType":"POINT"}]},"useCastShadows":true}},"name":"Verge3D_Environment_World"}],"meshes":[{"extensions":{"S8S_v3d_mesh":{"colorLayers":{},"uvLayers":{"UVChannel_1":"TEXCOORD_0","UVMap_AO":"TEXCOORD_1"}}},"name":"Mesh","primitives":[{"attributes":{"NORMAL":2,"POSITION":1,"TEXCOORD_0":3,"TEXCOORD_1":4},"indices":0,"material":2,"mode":4},{"attributes":{"NORMAL":7,"POSITION":6,"TEXCOORD_0":8,"TEXCOORD_1":9},"indices":5,"material":0,"mode":4}]},{"extensions":{"S8S_v3d_mesh":{"colorLayers":{},"uvLayers":{"UVMap":"TEXCOORD_0"}}},"name":"Plane","primitives":[{"attributes":{"NORMAL":12,"POSITION":11,"TEXCOORD_0":13},"indices":10,"material":1,"mode":4}]}],"nodes":[{"extensions":{"S8S_v3d_node":{"frustumCulling":true,"groupNames":["Collection"],"hidden":false,"hidpiCompositing":false,"objectColor":[1.0,1.0,1.0,1.0],"objectIndex":0,"renderOrder":0}},"name":"Camera_Front","translation":[0.0,0.25,0.5]},{"extensions":{"S8S_v3d_node":{"frustumCulling":true,"groupNames":["Collection"],"hidden":false,"hidpiCompositing":false,"objectColor":[1.0,1.0,1.0,1.0],"objectIndex":0,"renderOrder":0}},"name":"Camera_Start","rotation":[0.0,-0.7071068286895752,-0.0,0.7071068286895752],"translation":[0.0,0.25,0.5]},{"extensions":{"S8S_v3d_node":{"frustumCulling":true,"groupNames":["Body"],"hidden":false,"hidpiCompositing":false,"objectColor":[1.0,1.0,1.0,1.0],"objectIndex":0,"renderOrder":0,"useShadows":true}},"mesh":1,"name":"Ground"},{"extensions":{"S8S_v3d_node":{"frustumCulling":true,"groupNames":["Collection"],"hidden":false,"hidpiCompositing":false,"objectColor":[1.0,1.0,1.0,1.0],"objectIndex":0,"renderOrder":0}},"name":"Camera_Target","translation":[-3.8743019104003906e-07,0.10482499748468399,-0.0]},{"extensions":{"S8S_v3d_node":{"frustumCulling":true,"groupNames":["Collection"],"hidden":false,"hidpiCompositing":false,"objectColor":[1.0,1.0,1.0,1.0],"objectIndex":0,"renderOrder":0}},"name":"Camera_Left","translation":[-0.5,0.25,-0.0]},{"camera":0,"extensions":{"S8S_v3d_node":{"frustumCulling":true,"groupNames":["Collection"],"hidden":false,"hidpiCompositing":false,"objectColor":[0.0,0.0,0.0,0.0],"objectIndex":0,"renderOrder":0}},"name":"Camera","rotation":[-0.12331107258796692,-0.2279011309146881,-0.029109809547662735,0.9654056429862976],"scale":[1.0,1.0000001192092896,1.0000001192092896],"translation":[-0.25,0.25,0.5]},{"extensions":{"S8S_v3d_node":{"frustumCulling":true,"groupNames":["Collection"],"hidden":false,"hidpiCompositing":false,"objectColor":[1.0,1.0,1.0,1.0],"objectIndex":0,"renderOrder":0}},"name":"Camera_Top","translation":[0.0,0.5,-0.0]},{"extensions":{"S8S_v3d_node":{"frustumCulling":true,"groupNames":["Body"],"hidden":false,"hidpiCompositing":false,"objectColor":[0.800000011920929,0.800000011920929,0.800000011920929,1.0],"objectIndex":0,"renderOrder":0,"useShadows":true}},"mesh":0,"name":"Coke","rotation":[9.408279311173828e-08,-0.3454212546348572,-7.72995747411187e-08,0.9384477734565735],"scale":[0.0010000000474974513,0.0010000000474974513,0.0010000000474974513],"translation":[1.1950947095005007e-14,0.16679678857326508,3.4319552408290654e-14]}],"samplers":[{}],"scene":0,"scenes":[{"extensions":{"S8S_v3d_scene":{"aaMethod":"AUTO","iblEnvironmentMode":"PMREM","physicallyCorrectLights":true,"pmremMaxTileSize":512,"shadowMap":{"esmDistanceScale":1.0,"renderReverseSided":false,"renderSingleSided":true,"type":"PCFPOISSON"},"worldMaterial":3}},"extras":{"animFrameRate":30,"coordSystem":"Z_UP_RIGHT"},"name":"Scene","nodes":[3,1,5,0,4,6,7,2]}],"textures":[{"extensions":{"S8S_v3d_texture":{"anisotropy":16,"colorSpace":"srgb"}},"name":"Coke_Basecolor_1.jpg","sampler":0,"source":0},{"extensions":{"S8S_v3d_texture":{"anisotropy":16,"colorSpace":"non-color"}},"name":"AO.jpg","sampler":0,"source":1},{"extensions":{"S8S_v3d_texture":{"anisotropy":16,"colorSpace":"non-color"}},"name":"Ground.jpg","sampler":0,"source":2},{"extensions":{"S8S_v3d_texture":{"anisotropy":16,"colorSpace":"non-color"}},"name":"AO.jpg","sampler":0,"source":1},{"extensions":{"S8S_v3d_texture":{"colorSpace":"linear","source":3}},"name":"environment_1.hdr","sampler":0}]}
